<svg width="158" height="158" viewBox="0 0 158 158" fill="none" xmlns="http://www.w3.org/2000/svg">
<g clip-path="url(#clip0_133_417)">
<g filter="url(#filter0_d_133_417)">
<path d="M0 79C0 35.3695 35.3695 0 79 0V0C122.63 0 158 35.3695 158 79V79C158 122.63 122.63 158 79 158V158C35.3695 158 0 122.63 0 79V79Z" fill="#8A19D6"/>
</g>
<path d="M132 49.0698C132 55.0388 130.483 60.7364 127.448 66.1628C124.521 71.5891 120.511 76.3643 115.417 80.4884C110.431 84.5039 104.525 87.7054 97.6963 90.093C90.9765 92.4806 83.8231 93.6744 76.2362 93.6744C73.5266 93.6744 71.3589 93.3488 69.7331 92.6977C68.2157 91.938 66.4816 90.5271 64.5307 88.4651C59.1114 100.295 54.6677 111.202 51.1994 121.186C47.8395 131.062 45.9509 140.667 44 150C40 148 37.3591 146.239 34 144C31 142 25 137 25 136.5C26.0838 134.438 28.3845 130.899 29.9018 127.535C31.4192 124.171 33.2618 120.047 35.4294 115.163C37.5971 110.171 40.09 104.256 42.908 97.4186C45.8344 90.4729 49.2485 82.3876 53.1503 73.1628C54.8845 68.9302 56.4018 65.2403 57.7025 62.093C59.0031 58.9457 60.1411 56.0155 61.1166 53.3023C62.092 50.4806 62.9591 47.7132 63.7178 45C64.5849 42.2868 65.4519 39.3023 66.319 36.0465C61.225 37.6744 56.5102 39.5736 52.1748 41.7442C47.9479 43.9147 44.4254 46.1938 41.6074 48.5814C40.6319 47.9302 39.6022 46.9535 38.5184 45.6512C37.5429 44.3488 36.6217 42.938 35.7546 41.4186C34.8875 39.7907 34.1288 38.1628 33.4785 36.5349C32.8282 34.907 32.4489 33.4419 32.3405 32.1395C35.4836 29.969 39.3855 27.9612 44.046 26.1163C48.7065 24.2713 53.6922 22.6977 59.0031 21.3953C64.3139 19.9845 69.7873 18.8992 75.4233 18.1395C81.1677 17.3798 86.6411 17 91.8436 17C98.0215 17 103.603 17.814 108.589 19.4419C113.575 20.9612 117.802 23.1318 121.27 25.9535C124.738 28.7752 127.394 32.1395 129.236 36.0465C131.079 39.9535 132 44.2946 132 49.0698ZM103.061 29.5349C98.9427 29.5349 94.7158 29.8605 90.3804 30.5116L92.3313 33.4419C91.2474 34.8527 89.8926 36.969 88.2669 39.7907C86.6411 42.6124 84.8528 46.031 82.9018 50.0465C80.9509 53.9535 78.7832 58.3488 76.3988 63.2326C74.1227 68.1163 71.684 73.2713 69.0828 78.6977C77.5368 78.6977 85.2321 77.938 92.1687 76.4186C99.1053 74.7907 105.012 72.6202 109.89 69.907C114.875 67.0853 118.723 63.8295 121.433 60.1395C124.251 56.4496 125.66 52.4884 125.66 48.2558C125.66 42.6124 123.763 38.1085 119.969 34.7442C116.176 31.2713 110.54 29.5349 103.061 29.5349Z" fill="white"/>
</g>
<defs>
<filter id="filter0_d_133_417" x="-4" y="0" width="166" height="166" filterUnits="userSpaceOnUse" color-interpolation-filters="sRGB">
<feFlood flood-opacity="0" result="BackgroundImageFix"/>
<feColorMatrix in="SourceAlpha" type="matrix" values="0 0 0 0 0 0 0 0 0 0 0 0 0 0 0 0 0 0 127 0" result="hardAlpha"/>
<feOffset dy="4"/>
<feGaussianBlur stdDeviation="2"/>
<feComposite in2="hardAlpha" operator="out"/>
<feColorMatrix type="matrix" values="0 0 0 0 0 0 0 0 0 0 0 0 0 0 0 0 0 0 0.25 0"/>
<feBlend mode="normal" in2="BackgroundImageFix" result="effect1_dropShadow_133_417"/>
<feBlend mode="normal" in="SourceGraphic" in2="effect1_dropShadow_133_417" result="shape"/>
</filter>
<clipPath id="clip0_133_417">
<rect width="158" height="158" rx="21" fill="white"/>
</clipPath>
</defs>
</svg>
